<?xml version="1.0" encoding="UTF-8"?>
<svg width="140px" height="140px" viewBox="0 0 140 140" version="1.1" xmlns="http://www.w3.org/2000/svg" xmlns:xlink="http://www.w3.org/1999/xlink">
    <title>pictogram/digital-security/assistance</title>
    <g id="pictogram/digital-security/assistance" stroke="none" stroke-width="1" fill="none" fill-rule="evenodd">
        <g>
            <path d="M140,70 C140,108.65995 108.65995,140 70,140 C31.34005,140 0,108.65995 0,70 C0,31.34005 31.34005,0 70,0 C108.65995,0 140,31.34005 140,70" id="Mask" fill="#5495CF"></path>
            <g id="Assistance" transform="translate(21.000000, 20.000000)">
                <g id="light-glow" fill="#2167AE">
                    <rect id="Rectangle" x="46" y="0" width="7" height="17" rx="3.5"></rect>
                    <path d="M8.5,37 C10.4329966,37 12,38.5670034 12,40.5 L12,50.5 C12,52.4329966 10.4329966,54 8.5,54 C6.56700338,54 5,52.4329966 5,50.5 L5,40.5 C5,38.5670034 6.56700338,37 8.5,37 Z" id="Rectangle-Copy-4" transform="translate(8.500000, 45.500000) rotate(90.000000) translate(-8.500000, -45.500000) "></path>
                    <path d="M90.5,37 C92.4329966,37 94,38.5670034 94,40.5 L94,50.5 C94,52.4329966 92.4329966,54 90.5,54 C88.5670034,54 87,52.4329966 87,50.5 L87,40.5 C87,38.5670034 88.5670034,37 90.5,37 Z" id="Rectangle-Copy-5" transform="translate(90.500000, 45.500000) rotate(90.000000) translate(-90.500000, -45.500000) "></path>
                    <path d="M78.4101763,12.0274845 C80.3109784,12.0427382 81.8485816,13.5790511 81.8654312,15.4798396 L81.9549214,25.5751293 C81.9714079,27.4349542 80.4770869,28.9560051 78.6172621,28.9724916 C78.5983039,28.9726597 78.5793447,28.9726677 78.5603864,28.9725155 C76.6595844,28.9572618 75.1219812,27.4209489 75.1051315,25.5201604 L75.0156413,15.4248707 C74.9991548,13.5650458 76.4934758,12.0439949 78.3533007,12.0275084 C78.3722588,12.0273403 78.3912181,12.0273323 78.4101763,12.0274845 Z" id="Rectangle-Copy-6" transform="translate(78.485281, 20.500000) rotate(45.000000) translate(-78.485281, -20.500000) "></path>
                    <path d="M20.4101763,12.0274845 C22.3109784,12.0427382 23.8485816,13.5790511 23.8654312,15.4798396 L23.9549214,25.5751293 C23.9714079,27.4349542 22.4770869,28.9560051 20.6172621,28.9724916 C20.5983039,28.9726597 20.5793447,28.9726677 20.5603864,28.9725155 C18.6595844,28.9572618 17.1219812,27.4209489 17.1051315,25.5201604 L17.0156413,15.4248707 C16.9991548,13.5650458 18.4934758,12.0439949 20.3533007,12.0275084 C20.3722588,12.0273403 20.3912181,12.0273323 20.4101763,12.0274845 Z" id="Rectangle-Copy-7" transform="translate(20.485281, 20.500000) scale(-1, 1) rotate(45.000000) translate(-20.485281, -20.500000) "></path>
                </g>
                <g id="Lampe" transform="translate(9.387273, 25.673452)">
                    <path d="M39.9710258,1.77635684e-14 C54.1623466,1.5156665e-14 65.6666852,11.5043386 65.6666852,25.6956594 L65.6666852,41.2763507 C65.6666852,41.7705068 65.6527362,42.2614048 65.6252104,42.7486726 L14.3168412,42.7486726 C14.2893154,42.2614048 14.2753664,41.7705068 14.2753664,41.2763507 L14.2753664,25.6956594 C14.2753664,11.5043386 25.779705,2.03704717e-14 39.9710258,1.77635684e-14 Z" id="Combined-Shape" fill="#EEF0F1"></path>
                    <path d="M36.4170544,12.1601993 C29.4478998,13.2913932 25.9633226,17.1284926 25.9633226,23.6714976" id="Path-2" stroke="#1FB1E6" stroke-width="6.41221374" fill="#1FB1E6" stroke-linecap="round"></path>
                    <rect id="Rectangle" stroke="#23366F" stroke-width="8" fill="#23366F" x="4" y="41.9983036" width="74.3212793" height="15.273961" rx="5.8778626"></rect>
                </g>
            </g>
        </g>
    </g>
</svg>